<svg width="24" height="24" viewBox="0 0 24 24" fill="none" xmlns="http://www.w3.org/2000/svg">
    <path d="M10.5657 21.3057L4.25045 16.3756C3.95114 16.142 3.89864 15.7099 4.13315 15.4109L14.456 2.25048C14.6902 1.9519 15.122 1.89903 15.4209 2.13234L21.7362 7.06237C22.0355 7.296 22.088 7.72807 21.8535 8.0271L11.5306 21.1875C11.2964 21.4861 10.8646 21.539 10.5657 21.3057Z" fill="#57AD7B"/>
    <path d="M6.57833 21.7089L2.11675 15.0606C1.9052 14.7454 1.98974 14.3183 2.30549 14.1068L16.2124 4.7961C16.5278 4.58496 16.9545 4.66897 17.1658 4.98383L21.6274 11.6321C21.8389 11.9473 21.7544 12.3744 21.4386 12.5859L7.53173 21.8966C7.21635 22.1077 6.78963 22.0237 6.57833 21.7089Z" fill="#81CDA1"/>
    <path d="M21.6274 11.6321L17.1659 4.98383C16.9546 4.66897 16.5278 4.58496 16.2125 4.7961L15.6713 5.15842L20.0157 11.6321C20.2272 11.9473 20.1427 12.3744 19.8269 12.5859L6.46118 21.5343L6.57836 21.7089C6.78966 22.0237 7.21638 22.1077 7.53176 21.8966L21.4387 12.5859C21.7545 12.3744 21.8389 11.9473 21.6274 11.6321Z" fill="#60BF88"/>
    <path d="M15.5314 13.5653C15.6488 11.5458 14.1049 9.81346 12.0832 9.69596C10.0614 9.57847 8.32731 11.1203 8.20994 13.1398C8.09258 15.1593 9.6364 16.8916 11.6582 17.0091C13.6799 17.1266 15.414 15.5848 15.5314 13.5653Z" fill="#29795D"/>
    <path d="M4.20866 12.8328C5.12499 14.1982 4.75977 16.047 3.39291 16.9622L2.11623 15.0598C1.90496 14.745 1.9897 14.3184 2.30553 14.1069L4.20866 12.8328Z" fill="#29795D"/>
    <path d="M5.30518 19.8117C6.67494 18.8947 8.52666 19.2558 9.44106 20.6184L7.53264 21.8961C7.21685 22.1075 6.78957 22.0237 6.57831 21.7089L5.30518 19.8117Z" fill="#29795D"/>
    <path d="M19.5365 13.8613C18.6202 12.4959 18.9854 10.6471 20.3522 9.73193L21.6289 11.6343C21.8402 11.9491 21.7555 12.3757 21.4396 12.5871L19.5365 13.8613Z" fill="#29795D"/>
    <path d="M18.44 6.88243C17.0702 7.79952 15.2185 7.43837 14.3041 6.07578L16.2125 4.79809C16.5283 4.58666 16.9556 4.67048 17.1668 4.98525L18.44 6.88243Z" fill="#29795D"/>
    <path d="M16.4746 10.5675C16.3771 10.5675 16.2815 10.5204 16.2232 10.4333C16.1304 10.2946 16.1675 10.1069 16.3062 10.0141L17.7289 9.06159C17.8676 8.96879 18.0553 9.0059 18.1482 9.14459C18.241 9.28329 18.2038 9.47098 18.0652 9.56385L16.6425 10.5163C16.5909 10.5509 16.5324 10.5675 16.4746 10.5675Z" fill="#29795D"/>
    <path d="M5.84755 17.6824C5.75007 17.6824 5.65446 17.6354 5.59615 17.5483C5.50331 17.4096 5.54046 17.2219 5.67916 17.1291L7.10178 16.1766C7.24044 16.0837 7.42813 16.1209 7.52104 16.2596C7.61388 16.3983 7.57673 16.586 7.43804 16.6788L6.01541 17.6313C5.96375 17.6659 5.90533 17.6824 5.84755 17.6824Z" fill="#29795D"/>
    <path d="M13.2845 14.9527C13.7202 14.5036 13.7344 13.8823 13.5362 13.4428C13.2772 12.869 12.7065 12.6017 12.0821 12.7619C12.0069 12.7812 11.9299 12.8004 11.8524 12.8186L11.1668 11.797C11.339 11.7411 11.4733 11.7557 11.4865 11.7573C11.6507 11.7809 11.8029 11.6682 11.8282 11.5043C11.8537 11.3394 11.7406 11.185 11.5757 11.1595C11.5548 11.1563 11.2121 11.1076 10.8223 11.2836L10.6893 11.0855C10.5962 10.9469 10.4086 10.9099 10.2699 11.003C10.1314 11.096 10.0944 11.2837 10.1874 11.4223L10.3324 11.6385C10.3087 11.6638 10.2853 11.6901 10.2621 11.7181C9.99578 12.0416 9.93736 12.493 10.1098 12.896C10.2674 13.2644 10.5848 13.5095 10.9381 13.5355C11.1174 13.5487 11.3194 13.5357 11.5764 13.492L12.4586 14.8067C12.2838 14.9017 12.1431 14.9313 11.8791 14.9344C11.7122 14.9365 11.5785 15.0734 11.5806 15.2403C11.5826 15.4059 11.7175 15.5389 11.8827 15.5389H11.8864C12.2982 15.5339 12.5361 15.4604 12.7964 15.3101L12.9454 15.532C13.0037 15.619 13.0992 15.6659 13.1966 15.6659C13.2545 15.6659 13.313 15.6493 13.3647 15.6146C13.5033 15.5216 13.5402 15.3339 13.4472 15.1953L13.2845 14.9527ZM10.9826 12.9328C10.8574 12.9236 10.7329 12.8159 10.6656 12.6583C10.6077 12.5232 10.5876 12.3302 10.6855 12.1645L11.1998 12.9308C11.1223 12.9365 11.0491 12.9377 10.9826 12.9328ZM12.2322 13.3474C12.7296 13.2199 12.9343 13.5785 12.9853 13.6914C13.0809 13.9033 13.088 14.1909 12.9321 14.4275L12.2109 13.3528C12.2181 13.351 12.2249 13.3493 12.2322 13.3474Z" fill="#81CDA1"/>
</svg>
