<svg width="25" height="24" viewBox="0 0 25 24" fill="none" xmlns="http://www.w3.org/2000/svg">
    <path d="M6.375 2L3.375 6V20C3.375 20.5304 3.58571 21.0391 3.96079 21.4142C4.33586 21.7893 4.84457 22 5.375 22H19.375C19.9054 22 20.4141 21.7893 20.7892 21.4142C21.1643 21.0391 21.375 20.5304 21.375 20V6L18.375 2H6.375Z" stroke="#9AA6AC" stroke-width="2" stroke-linecap="round" stroke-linejoin="round"/>
    <path d="M3.375 6H21.375" stroke="#9AA6AC" stroke-width="2" stroke-linecap="round" stroke-linejoin="round"/>
    <path d="M16.375 10C16.375 11.0609 15.9536 12.0783 15.2034 12.8284C14.4533 13.5786 13.4359 14 12.375 14C11.3141 14 10.2967 13.5786 9.54657 12.8284C8.79643 12.0783 8.375 11.0609 8.375 10" stroke="#9AA6AC" stroke-width="2" stroke-linecap="round" stroke-linejoin="round"/>
</svg>
