<svg width="25" height="24" viewBox="0 0 25 24" fill="none" xmlns="http://www.w3.org/2000/svg">
    <path d="M22.125 15C22.1228 14.3997 21.9405 13.8139 21.6018 13.3183C21.2631 12.8227 20.7835 12.4401 20.225 12.22L22.095 5.22001C22.1341 5.07093 22.1381 4.91484 22.1069 4.76392C22.0757 4.61301 22.01 4.47135 21.915 4.35001C21.8179 4.23632 21.6965 4.14585 21.5598 4.08528C21.423 4.02471 21.2745 3.99557 21.125 4.00001H7.425L7.095 2.74001C7.03763 2.52692 6.91138 2.33879 6.73593 2.20494C6.56047 2.0711 6.34568 1.99904 6.125 2.00001H4.125V4.00001H5.355L7.835 13.26C7.8936 13.4782 8.02434 13.6701 8.20592 13.8044C8.38751 13.9388 8.60924 14.0077 8.835 14H19.125C19.3902 14 19.6446 14.1054 19.8321 14.2929C20.0196 14.4804 20.125 14.7348 20.125 15C20.125 15.2652 20.0196 15.5196 19.8321 15.7071C19.6446 15.8947 19.3902 16 19.125 16H6.125C5.85978 16 5.60543 16.1054 5.41789 16.2929C5.23036 16.4804 5.125 16.7348 5.125 17C5.125 17.2652 5.23036 17.5196 5.41789 17.7071C5.60543 17.8947 5.85978 18 6.125 18H7.305C7.14054 18.4531 7.08769 18.9392 7.15093 19.4171C7.21417 19.895 7.39165 20.3506 7.66832 20.7454C7.94499 21.1401 8.31272 21.4624 8.74035 21.6849C9.16799 21.9074 9.64295 22.0235 10.125 22.0235C10.6071 22.0235 11.082 21.9074 11.5096 21.6849C11.9373 21.4624 12.305 21.1401 12.5817 20.7454C12.8584 20.3506 13.0358 19.895 13.0991 19.4171C13.1623 18.9392 13.1095 18.4531 12.945 18H15.305C15.1553 18.4126 15.0979 18.853 15.137 19.2902C15.176 19.7274 15.3106 20.1507 15.531 20.5302C15.7515 20.9098 16.0526 21.2363 16.413 21.4868C16.7735 21.7373 17.1845 21.9056 17.6171 21.98C18.0497 22.0543 18.4933 22.0328 18.9167 21.917C19.34 21.8012 19.7328 21.5939 20.0674 21.3097C20.4019 21.0255 20.67 20.6714 20.8527 20.2723C21.0355 19.8732 21.1284 19.4389 21.125 19C21.1231 18.4834 20.9852 17.9764 20.725 17.53C21.1526 17.2604 21.5052 16.8871 21.7499 16.4448C21.9947 16.0025 22.1237 15.5055 22.125 15ZM18.215 12H9.625L7.965 6.00001H19.825L18.215 12ZM10.125 20C9.92722 20 9.73388 19.9414 9.56943 19.8315C9.40498 19.7216 9.27681 19.5654 9.20112 19.3827C9.12543 19.2 9.10563 18.9989 9.14421 18.8049C9.1828 18.6109 9.27804 18.4328 9.41789 18.2929C9.55775 18.153 9.73593 18.0578 9.92991 18.0192C10.1239 17.9806 10.325 18.0004 10.5077 18.0761C10.6904 18.1518 10.8466 18.28 10.9565 18.4444C11.0664 18.6089 11.125 18.8022 11.125 19C11.125 19.2652 11.0196 19.5196 10.8321 19.7071C10.6446 19.8947 10.3902 20 10.125 20ZM18.125 20C17.9272 20 17.7339 19.9414 17.5694 19.8315C17.405 19.7216 17.2768 19.5654 17.2011 19.3827C17.1254 19.2 17.1056 18.9989 17.1442 18.8049C17.1828 18.6109 17.278 18.4328 17.4179 18.2929C17.5577 18.153 17.7359 18.0578 17.9299 18.0192C18.1239 17.9806 18.325 18.0004 18.5077 18.0761C18.6904 18.1518 18.8466 18.28 18.9565 18.4444C19.0664 18.6089 19.125 18.8022 19.125 19C19.125 19.2652 19.0196 19.5196 18.8321 19.7071C18.6446 19.8947 18.3902 20 18.125 20Z" fill="#9AA6AC"/>
</svg>
