<svg width="20" height="20" viewBox="0 0 20 20" fill="none" xmlns="http://www.w3.org/2000/svg">
    <path d="M15.8333 3.33317H14.1667V2.49984C14.1667 2.27882 14.0789 2.06686 13.9226 1.91058C13.7663 1.7543 13.5543 1.6665 13.3333 1.6665C13.1123 1.6665 12.9003 1.7543 12.7441 1.91058C12.5878 2.06686 12.5 2.27882 12.5 2.49984V3.33317H7.49999V2.49984C7.49999 2.27882 7.41219 2.06686 7.25591 1.91058C7.09963 1.7543 6.88767 1.6665 6.66666 1.6665C6.44564 1.6665 6.23368 1.7543 6.0774 1.91058C5.92112 2.06686 5.83332 2.27882 5.83332 2.49984V3.33317H4.16666C3.50362 3.33317 2.86773 3.59656 2.39889 4.0654C1.93005 4.53424 1.66666 5.17013 1.66666 5.83317V15.8332C1.66666 16.4962 1.93005 17.1321 2.39889 17.6009C2.86773 18.0698 3.50362 18.3332 4.16666 18.3332H15.8333C16.4964 18.3332 17.1322 18.0698 17.6011 17.6009C18.0699 17.1321 18.3333 16.4962 18.3333 15.8332V5.83317C18.3333 5.17013 18.0699 4.53424 17.6011 4.0654C17.1322 3.59656 16.4964 3.33317 15.8333 3.33317ZM16.6667 15.8332C16.6667 16.0542 16.5789 16.2661 16.4226 16.4224C16.2663 16.5787 16.0543 16.6665 15.8333 16.6665H4.16666C3.94564 16.6665 3.73368 16.5787 3.5774 16.4224C3.42112 16.2661 3.33332 16.0542 3.33332 15.8332V9.99984H16.6667V15.8332ZM16.6667 8.33317H3.33332V5.83317C3.33332 5.61216 3.42112 5.4002 3.5774 5.24392C3.73368 5.08764 3.94564 4.99984 4.16666 4.99984H5.83332V5.83317C5.83332 6.05418 5.92112 6.26615 6.0774 6.42243C6.23368 6.57871 6.44564 6.6665 6.66666 6.6665C6.88767 6.6665 7.09963 6.57871 7.25591 6.42243C7.41219 6.26615 7.49999 6.05418 7.49999 5.83317V4.99984H12.5V5.83317C12.5 6.05418 12.5878 6.26615 12.7441 6.42243C12.9003 6.57871 13.1123 6.6665 13.3333 6.6665C13.5543 6.6665 13.7663 6.57871 13.9226 6.42243C14.0789 6.26615 14.1667 6.05418 14.1667 5.83317V4.99984H15.8333C16.0543 4.99984 16.2663 5.08764 16.4226 5.24392C16.5789 5.4002 16.6667 5.61216 16.6667 5.83317V8.33317Z" fill="#858585"/>
</svg>
