<svg width="24" height="25" viewBox="0 0 24 25" fill="none" xmlns="http://www.w3.org/2000/svg">
    <path d="M19.44 13.4999C19.22 13.4999 18.99 13.4299 18.77 13.3799C18.3245 13.2817 17.8866 13.1514 17.46 12.9899C16.9961 12.8211 16.4861 12.8299 16.0283 13.0145C15.5704 13.1991 15.1971 13.5465 14.98 13.9899L14.76 14.4399C13.786 13.898 12.891 13.2251 12.1 12.4399C11.3147 11.6489 10.6418 10.7539 10.1 9.77987L10.52 9.49987C10.9633 9.28278 11.3108 8.9094 11.4954 8.45156C11.68 7.99372 11.6888 7.48378 11.52 7.01987C11.3612 6.59229 11.2309 6.15467 11.13 5.70987C11.08 5.48987 11.04 5.25987 11.01 5.02987C10.8885 4.32549 10.5196 3.68761 9.9696 3.23111C9.4196 2.7746 8.72467 2.52948 8.00998 2.53987H5.00998C4.57901 2.53582 4.15223 2.62468 3.75869 2.8004C3.36515 2.97612 3.01409 3.23456 2.72941 3.55815C2.44473 3.88174 2.23311 4.26286 2.10897 4.67558C1.98482 5.0883 1.95106 5.52293 2.00998 5.94987C2.54272 10.1392 4.45601 14.0317 7.44763 17.0125C10.4393 19.9933 14.3387 21.8924 18.53 22.4099H18.91C19.6474 22.4109 20.3594 22.1404 20.91 21.6499C21.2263 21.3669 21.4791 21.02 21.6514 20.6322C21.8238 20.2443 21.9119 19.8243 21.91 19.3999V16.3999C21.8977 15.7053 21.6448 15.0364 21.1943 14.5075C20.7439 13.9786 20.1238 13.6225 19.44 13.4999ZM19.94 19.4999C19.9398 19.6419 19.9094 19.7822 19.8508 19.9115C19.7921 20.0408 19.7066 20.1562 19.6 20.2499C19.4886 20.3469 19.358 20.4193 19.2167 20.4624C19.0754 20.5054 18.9266 20.5182 18.78 20.4999C15.0349 20.0197 11.5562 18.3064 8.89269 15.6302C6.22917 12.954 4.53239 9.46721 4.06998 5.71987C4.05406 5.57339 4.06801 5.4252 4.11098 5.28426C4.15395 5.14332 4.22505 5.01256 4.31998 4.89987C4.41369 4.7932 4.52904 4.70771 4.65836 4.64909C4.78767 4.59046 4.92799 4.56005 5.06998 4.55987H8.06998C8.30253 4.55469 8.5296 4.63075 8.71212 4.77494C8.89464 4.91913 9.02119 5.12244 9.06998 5.34987C9.10998 5.6232 9.15998 5.8932 9.21998 6.15987C9.3355 6.68701 9.48924 7.20505 9.67998 7.70987L8.27998 8.35987C8.16028 8.41479 8.0526 8.49281 7.96314 8.58946C7.87367 8.68611 7.80418 8.79948 7.75865 8.92306C7.71312 9.04664 7.69245 9.178 7.69783 9.30959C7.7032 9.44118 7.73452 9.57041 7.78998 9.68987C9.22918 12.7726 11.7072 15.2507 14.79 16.6899C15.0334 16.7899 15.3065 16.7899 15.55 16.6899C15.6747 16.6453 15.7893 16.5763 15.8871 16.4871C15.985 16.3978 16.0641 16.29 16.12 16.1699L16.74 14.7699C17.2569 14.9547 17.7846 15.1084 18.32 15.2299C18.5866 15.2899 18.8566 15.3399 19.13 15.3799C19.3574 15.4287 19.5607 15.5552 19.7049 15.7377C19.8491 15.9202 19.9252 16.1473 19.92 16.3799L19.94 19.4999Z" fill="black"/>
</svg>
