<svg width="32" height="32" viewBox="0 0 32 32" fill="none" xmlns="http://www.w3.org/2000/svg">
    <path fill-rule="evenodd" clip-rule="evenodd" d="M24.9426 9.72388C25.1926 9.97392 25.333 10.313 25.333 10.6665C25.333 11.0201 25.1926 11.3592 24.9426 11.6092L14.2759 22.2759C14.0259 22.5258 13.6868 22.6663 13.3333 22.6663C12.9797 22.6663 12.6406 22.5258 12.3906 22.2759L7.05727 16.9425C6.81439 16.6911 6.68 16.3543 6.68303 16.0047C6.68607 15.6551 6.8263 15.3207 7.07351 15.0735C7.32072 14.8262 7.65514 14.686 8.00473 14.683C8.35433 14.6799 8.69113 14.8143 8.9426 15.0572L13.3333 19.4479L23.0573 9.72388C23.3073 9.47392 23.6464 9.3335 23.9999 9.3335C24.3535 9.3335 24.6926 9.47392 24.9426 9.72388Z" fill="white"/>
</svg>
