<svg width="24" height="24" viewBox="0 0 24 24" fill="none" xmlns="http://www.w3.org/2000/svg">
    <path d="M8.46002 12.71L14.12 18.36C14.213 18.4537 14.3236 18.5281 14.4454 18.5789C14.5673 18.6296 14.698 18.6558 14.83 18.6558C14.962 18.6558 15.0927 18.6296 15.2146 18.5789C15.3365 18.5281 15.4471 18.4537 15.54 18.36C15.7263 18.1726 15.8308 17.9191 15.8308 17.655C15.8308 17.3908 15.7263 17.1373 15.54 16.95L10.59 11.95L15.54 6.99996C15.7263 6.8126 15.8308 6.55915 15.8308 6.29496C15.8308 6.03078 15.7263 5.77733 15.54 5.58996C15.4474 5.49548 15.337 5.42031 15.2151 5.36881C15.0932 5.31731 14.9623 5.29051 14.83 5.28996C14.6977 5.29051 14.5668 5.31731 14.445 5.36881C14.3231 5.42031 14.2126 5.49548 14.12 5.58996L8.46002 11.24C8.35851 11.3336 8.2775 11.4473 8.2221 11.5738C8.16669 11.7003 8.13809 11.8369 8.13809 11.975C8.13809 12.1131 8.16669 12.2497 8.2221 12.3762C8.2775 12.5027 8.35851 12.6163 8.46002 12.71Z" fill="black"/>
</svg>
