<svg width="25" height="24" viewBox="0 0 25 24" fill="none" xmlns="http://www.w3.org/2000/svg">
    <g clip-path="url(#clip0_1_1831)">
        <path d="M20.1052 20.5518H4.56567V23.3775H20.1052V20.5518Z" fill="white"/>
        <path d="M18.7713 3.47596C18.2637 3.47596 17.7662 3.54332 17.2852 3.67658C16.8757 2.90047 16.288 2.23246 15.5597 1.72096C14.6212 1.0618 13.5169 0.713379 12.3663 0.713379C11.2106 0.713379 10.1022 1.06466 9.16111 1.72925C8.43281 2.24361 7.84631 2.91416 7.43887 3.69266C6.94036 3.54861 6.42361 3.47591 5.89537 3.47591C2.82848 3.47596 0.333374 5.97111 0.333374 9.038C0.333374 11.6169 2.11373 13.8382 4.56548 14.4398V19.0518H20.1051V14.4388C22.5546 13.8357 24.3334 11.6146 24.3334 9.03796C24.3334 5.97111 21.8383 3.47596 18.7713 3.47596Z" fill="white"/>
    </g>
    <defs>
        <clipPath id="clip0_1_1831">
            <rect width="24" height="24" fill="white" transform="translate(0.333374)"/>
        </clipPath>
    </defs>
</svg>
