<svg width="24" height="24" viewBox="0 0 24 24" fill="none" xmlns="http://www.w3.org/2000/svg">
    <g clip-path="url(#clip0_1_1005)">
        <path d="M6.40488 14.2679V20.7531C6.36917 20.7545 6.33347 20.7549 6.29761 20.7549C6.2616 20.7549 6.22589 20.7545 6.19019 20.7531V14.2679C6.22589 14.2666 6.2616 14.2661 6.29761 14.2661C6.33347 14.2661 6.36917 14.2666 6.40488 14.2679Z" fill="url(#paint0_linear_1_1005)"/>
        <path d="M9.54202 17.5103C9.54202 17.5464 9.54156 17.5821 9.54019 17.6178H3.05505C3.05368 17.5821 3.05322 17.5464 3.05322 17.5103C3.05322 17.4745 3.05368 17.4388 3.05505 17.4031H9.54019C9.54156 17.4388 9.54202 17.4745 9.54202 17.5103Z" fill="url(#paint1_linear_1_1005)"/>
        <path d="M8.66623 15.2938L4.08081 19.8792C4.02847 19.8303 3.97766 19.7796 3.92883 19.7273L6.19019 17.4659L6.25305 17.4032L8.03513 15.6211L8.51425 15.1418C8.56659 15.1907 8.6174 15.2415 8.66623 15.2938Z" fill="url(#paint2_linear_1_1005)"/>
        <path d="M8.66623 19.7273C8.6174 19.7796 8.56659 19.8304 8.51425 19.8792L8.03513 19.4L6.40488 17.7699L3.92883 15.2938C3.97766 15.2415 4.02847 15.1907 4.08081 15.1418L8.66623 19.7273Z" fill="url(#paint3_linear_1_1005)"/>
        <path d="M6.29758 14.9539C4.88553 14.9539 3.74097 16.0984 3.74097 17.5105C3.74097 18.9224 4.88553 20.0671 6.29758 20.0671C7.70947 20.0671 8.85403 18.9224 8.85403 17.5105C8.85403 16.0984 7.70947 14.9539 6.29758 14.9539ZM6.29758 19.5333C5.18018 19.5333 4.27441 18.6277 4.27441 17.5103C4.27441 16.3931 5.18018 15.4873 6.29758 15.4873C7.41483 15.4873 8.32059 16.3931 8.32059 17.5103C8.32059 18.6277 7.41483 19.5333 6.29758 19.5333Z" fill="url(#paint4_linear_1_1005)"/>
        <path d="M6.29767 14.2661C4.50583 14.2661 3.05334 15.7188 3.05334 17.5104C3.05334 19.3023 4.50583 20.7548 6.29767 20.7548C8.08936 20.7548 9.54184 19.3023 9.54184 17.5104C9.54184 15.7188 8.08936 14.2661 6.29767 14.2661ZM6.29767 19.8194C5.02249 19.8194 3.98871 18.7858 3.98871 17.5104C3.98871 16.2353 5.02234 15.2016 6.29767 15.2016C7.57285 15.2016 8.60648 16.2353 8.60648 17.5104C8.60648 18.7856 7.57285 19.8194 6.29767 19.8194Z" fill="url(#paint5_radial_1_1005)"/>
        <path d="M7.75681 17.5106C7.75681 18.3166 7.10342 18.9698 6.29761 18.9698C5.49164 18.9698 4.83826 18.3166 4.83826 17.5106C4.83826 16.7047 5.49164 16.0513 6.29761 16.0513C7.10342 16.0513 7.75681 16.7047 7.75681 17.5106Z" fill="url(#paint6_linear_1_1005)"/>
        <path d="M7.71872 17.8413L6.85873 16.9813C6.71805 16.8322 6.51877 16.739 6.29752 16.739C5.87134 16.739 5.52588 17.0845 5.52588 17.5105C5.52588 17.7318 5.61911 17.931 5.76834 18.0717L6.62833 18.9317C7.16864 18.8066 7.59344 18.3815 7.71872 17.8413Z" fill="url(#paint7_linear_1_1005)"/>
        <path d="M7.06912 17.5107C7.06912 17.9367 6.72366 18.2821 6.29764 18.2821C5.87146 18.2821 5.526 17.9367 5.526 17.5107C5.526 17.0845 5.87146 16.739 6.29764 16.739C6.72366 16.739 7.06912 17.0845 7.06912 17.5107Z" fill="url(#paint8_radial_1_1005)"/>
        <path d="M18.8629 14.2679V20.7531C18.8272 20.7545 18.7915 20.7549 18.7555 20.7549C18.7196 20.7549 18.6837 20.7545 18.6482 20.7531V14.2679C18.6839 14.2666 18.7196 14.2661 18.7555 14.2661C18.7915 14.2661 18.8272 14.2666 18.8629 14.2679Z" fill="url(#paint9_linear_1_1005)"/>
        <path d="M22 17.5103C22 17.5464 21.9994 17.5821 21.9982 17.6178H15.5131C15.5117 17.5821 15.5112 17.5464 15.5112 17.5103C15.5112 17.4745 15.5117 17.4388 15.5131 17.4031H21.9982C21.9994 17.4388 22 17.4745 22 17.5103Z" fill="url(#paint10_linear_1_1005)"/>
        <path d="M21.1244 15.2938L18.6483 17.7699L17.0181 19.4L16.5389 19.8792C16.4866 19.8303 16.4358 19.7796 16.387 19.7273L18.4963 17.6179L18.6036 17.5105L18.6482 17.4659L18.711 17.4032L20.9724 15.1418C21.0247 15.1907 21.0755 15.2415 21.1244 15.2938Z" fill="url(#paint11_linear_1_1005)"/>
        <path d="M21.1244 19.7273C21.0755 19.7796 21.0247 19.8304 20.9724 19.8792L16.387 15.2938C16.4358 15.2415 16.4866 15.1907 16.5389 15.1418L17.0181 15.6211L18.7557 17.3586L21.1244 19.7273Z" fill="url(#paint12_linear_1_1005)"/>
        <path d="M18.7556 14.9539C17.3437 14.9539 16.199 16.0984 16.199 17.5105C16.199 18.9224 17.3437 20.0671 18.7556 20.0671C20.1676 20.0671 21.3122 18.9224 21.3122 17.5105C21.3122 16.0984 20.1676 14.9539 18.7556 14.9539ZM18.7556 19.5333C17.6383 19.5333 16.7326 18.6277 16.7326 17.5103C16.7326 16.3931 17.6383 15.4873 18.7556 15.4873C19.873 15.4873 20.7786 16.3931 20.7786 17.5103C20.7786 18.6277 19.873 19.5333 18.7556 19.5333Z" fill="url(#paint13_linear_1_1005)"/>
        <path d="M18.7556 14.2661C16.9639 14.2661 15.5112 15.7188 15.5112 17.5104C15.5112 19.3023 16.9639 20.7548 18.7556 20.7548C20.5474 20.7548 21.9999 19.3023 21.9999 17.5104C21.9999 15.7188 20.5474 14.2661 18.7556 14.2661ZM18.7556 19.8194C17.4804 19.8194 16.4466 18.7858 16.4466 17.5104C16.4466 16.2353 17.4804 15.2016 18.7556 15.2016C20.0309 15.2016 21.0645 16.2353 21.0645 17.5104C21.0645 18.7856 20.0307 19.8194 18.7556 19.8194Z" fill="url(#paint14_radial_1_1005)"/>
        <path d="M20.2149 17.5106C20.2149 18.3166 19.5616 18.9698 18.7556 18.9698C17.9496 18.9698 17.2964 18.3166 17.2964 17.5106C17.2964 16.7047 17.9496 16.0513 18.7556 16.0513C19.5616 16.0513 20.2149 16.7047 20.2149 17.5106Z" fill="url(#paint15_linear_1_1005)"/>
        <path d="M20.1767 17.8413L19.3167 16.9813C19.1761 16.8322 18.9768 16.739 18.7555 16.739C18.3293 16.739 17.9839 17.0845 17.9839 17.5105C17.9839 17.7318 18.0771 17.931 18.2263 18.0717L19.0863 18.9317C19.6265 18.8066 20.0515 18.3815 20.1767 17.8413Z" fill="url(#paint16_linear_1_1005)"/>
        <path d="M19.5272 17.5107C19.5272 17.9367 19.1817 18.2821 18.7555 18.2821C18.3293 18.2821 17.9839 17.9367 17.9839 17.5107C17.9839 17.0845 18.3293 16.739 18.7555 16.739C19.1817 16.739 19.5272 17.0845 19.5272 17.5107Z" fill="url(#paint17_radial_1_1005)"/>
        <path d="M15.726 16.2701V17.2582C15.6133 17.3957 15.4431 17.4819 15.2538 17.4819H7.52063V13.2871H9.05872V14.7707C9.05872 15.599 9.7298 16.2701 10.558 16.2701H15.726Z" fill="url(#paint18_linear_1_1005)"/>
        <path d="M9.05872 17.4821H2.9996C2.44754 17.4821 2 17.0345 2 16.4826V15.0342C2 12.6279 3.95068 10.6772 6.35715 10.6772H11.2493C11.2493 11.2739 10.8614 11.8014 10.2919 11.9791L10.0489 12.055C9.21039 12.3167 9.05872 13.0932 9.05872 13.9716V17.4821Z" fill="url(#paint19_linear_1_1005)"/>
        <path d="M21.224 14.5269C21.3647 14.8293 21.0404 15.1331 20.7438 14.9805C20.2036 14.7025 19.591 14.5455 18.942 14.5455C17.9414 14.5455 17.0274 14.9184 16.332 15.5332V12.7744H18.476C19.6931 12.7744 20.7424 13.4919 21.224 14.5269Z" fill="url(#paint20_linear_1_1005)"/>
        <path d="M17.8001 12.7744H16.332V15.5332C17.0274 14.9184 17.9414 14.5455 18.942 14.5455C19.1773 14.5455 19.4077 14.5664 19.6317 14.6059L17.8001 12.7744Z" fill="url(#paint21_linear_1_1005)"/>
        <path d="M17.8719 13.2551C17.9667 13.7334 17.7721 14.2228 17.3743 14.5048C16.5766 15.0703 16.0139 15.9454 15.8613 16.9549C15.844 17.0699 15.796 17.1738 15.7261 17.2582C15.6133 17.3957 15.4432 17.4819 15.2538 17.4819H13.9548V8.98185C13.9548 8.48197 14.3563 8.06983 14.8562 8.06694C15.4351 8.06358 15.9745 8.26683 16.3958 8.6132C16.8143 8.95713 17.1168 9.44099 17.2283 10.004L17.8719 13.2551Z" fill="url(#paint22_linear_1_1005)"/>
        <path d="M14.3222 8.18365H12.4922C12.2575 8.18365 12.0673 7.99338 12.0673 7.75854V7.51334C12.0673 7.27866 12.2575 7.08838 12.4922 7.08838H14.3222C14.5569 7.08838 14.7472 7.27866 14.7472 7.51334V7.75854C14.7472 7.99338 14.5569 8.18365 14.3222 8.18365Z" fill="url(#paint23_linear_1_1005)"/>
        <path d="M17.2282 10.004C17.1167 9.44099 16.8143 8.95728 16.3957 8.6132C15.9744 8.26697 15.435 8.06373 14.8561 8.06693C14.6214 8.06831 14.4092 8.16062 14.2493 8.30909L17.5452 11.605L17.2282 10.004Z" fill="url(#paint24_linear_1_1005)"/>
        <path d="M16.9817 7.00662C16.9817 6.12375 16.6978 5.40796 16.3474 5.40796C15.9972 5.40796 15.7133 6.12375 15.7133 7.00662C15.7133 7.88965 15.9972 8.60529 16.3474 8.60529C16.6978 8.60529 16.9817 7.88965 16.9817 7.00662Z" fill="url(#paint25_linear_1_1005)"/>
        <path d="M16.2284 8.7197H15.3197C14.4371 8.7197 13.7218 8.00421 13.7218 7.1218V6.89169C13.7218 6.00928 14.4371 5.29395 15.3197 5.29395H16.2284C16.3886 5.29395 16.5183 5.42365 16.5183 5.58386V8.42978C16.5183 8.58984 16.3886 8.7197 16.2284 8.7197Z" fill="url(#paint26_linear_1_1005)"/>
        <path d="M6.50064 9.09253H10.669C11.1526 9.09253 11.5446 9.48453 11.5446 9.96808V10.3888C11.5446 10.5481 11.4153 10.6773 11.256 10.6773H5.91364C5.75433 10.6773 5.62524 10.5481 5.62524 10.3888V9.96808C5.62524 9.48453 6.01709 9.09253 6.50064 9.09253Z" fill="url(#paint27_linear_1_1005)"/>
        <path d="M8.84479 17.4821C8.92719 17.319 8.99875 17.1496 9.05872 16.9749V14.3539C8.51443 12.7662 7.00885 11.625 5.23669 11.625C5.22815 11.625 5.2196 11.625 5.21091 11.625C3.57364 11.6352 2.22491 12.8871 2.03098 14.5129C2.01053 14.6838 2 14.8579 2 15.0343V16.4826C2 17.0345 2.44754 17.4821 2.9996 17.4821H8.84479Z" fill="url(#paint28_linear_1_1005)"/>
        <path d="M6.23108 15.3535H3.93173C3.69141 15.3535 3.4967 15.1588 3.4967 14.9184C3.4967 14.6783 3.69141 14.4834 3.93173 14.4834H6.23108C6.47125 14.4834 6.66611 14.6781 6.66611 14.9184C6.66611 15.1588 6.47125 15.3535 6.23108 15.3535Z" fill="url(#paint29_linear_1_1005)"/>
        <path d="M6.23108 16.4567H3.93173C3.69141 16.4567 3.4967 16.262 3.4967 16.0217C3.4967 15.7815 3.69141 15.5867 3.93173 15.5867H6.23108C6.47125 15.5867 6.66611 15.7815 6.66611 16.0217C6.66611 16.262 6.47125 16.4567 6.23108 16.4567Z" fill="url(#paint30_linear_1_1005)"/>
        <path d="M8.64688 9.09244L3.41495 9.09167C3.24664 9.09167 3.11008 8.95511 3.11023 8.7868L3.11084 3.55487C3.11099 3.38641 3.24741 3.25 3.41586 3.25L8.6478 3.25076C8.81625 3.25076 8.95267 3.38733 8.95267 3.55563L8.9519 8.78772C8.9519 8.95602 8.81534 9.09244 8.64688 9.09244Z" fill="url(#paint31_linear_1_1005)"/>
        <path d="M5.15204 5.42401L8.20746 8.48019L8.26514 8.53131C8.33212 8.59067 8.43283 8.59067 8.49982 8.53146L8.49997 8.53131C8.56696 8.47195 8.66766 8.47195 8.73465 8.53131C8.79599 8.58578 8.88586 8.59021 8.95193 8.54474L8.95239 5.23251L6.97089 3.2504L5.09283 3.25024L5.09253 5.29141C5.09253 5.34207 5.1142 5.39044 5.15204 5.42401Z" fill="url(#paint32_linear_1_1005)"/>
        <path d="M6.97089 3.25055L6.97058 5.29172C6.97058 5.34238 6.94891 5.39059 6.91092 5.42416L6.85294 5.47543C6.7861 5.53479 6.68539 5.53464 6.61841 5.47543L6.61826 5.47528C6.55127 5.41592 6.45056 5.41592 6.38358 5.47528C6.31659 5.53464 6.21588 5.53464 6.1489 5.47528L6.14874 5.47513C6.08176 5.41577 5.98105 5.41592 5.91406 5.47513C5.84708 5.53448 5.74637 5.53448 5.67938 5.47513C5.6124 5.41577 5.51169 5.41577 5.4447 5.47498L5.44455 5.47513C5.37756 5.53448 5.27686 5.53448 5.20987 5.47513L5.15219 5.42386C5.1142 5.39029 5.09253 5.34207 5.09253 5.29141L5.09283 3.25024L6.97089 3.25055Z" fill="url(#paint33_linear_1_1005)"/>
        <path d="M3.11038 7.14868L3.11023 8.78671C3.11008 8.95517 3.24664 9.09158 3.41495 9.09174L8.64688 9.09235C8.81534 9.0925 8.9519 8.95593 8.9519 8.78763L8.95206 7.14944L3.11038 7.14868Z" fill="url(#paint34_linear_1_1005)"/>
        <path d="M3.58301 8.24756H4.87177V8.61911H3.58301V8.24756Z" fill="url(#paint35_linear_1_1005)"/>
        <path d="M3.58313 7.45947H5.62781V7.83102H3.58313V7.45947Z" fill="url(#paint36_linear_1_1005)"/>
    </g>
    <defs>
        <linearGradient id="paint0_linear_1_1005" x1="6.19015" y1="17.5105" x2="6.40492" y2="17.5105" gradientUnits="userSpaceOnUse">
            <stop stop-color="#575C55"/>
            <stop offset="1" stop-color="#45425A"/>
        </linearGradient>
        <linearGradient id="paint1_linear_1_1005" x1="3.05319" y1="17.5104" x2="9.54206" y2="17.5104" gradientUnits="userSpaceOnUse">
            <stop stop-color="#575C55"/>
            <stop offset="1" stop-color="#45425A"/>
        </linearGradient>
        <linearGradient id="paint2_linear_1_1005" x1="3.92884" y1="17.5106" x2="8.66623" y2="17.5106" gradientUnits="userSpaceOnUse">
            <stop stop-color="#575C55"/>
            <stop offset="1" stop-color="#45425A"/>
        </linearGradient>
        <linearGradient id="paint3_linear_1_1005" x1="3.92884" y1="17.5106" x2="8.66623" y2="17.5106" gradientUnits="userSpaceOnUse">
            <stop stop-color="#575C55"/>
            <stop offset="1" stop-color="#45425A"/>
        </linearGradient>
        <linearGradient id="paint4_linear_1_1005" x1="6.00109" y1="17.214" x2="9.83599" y2="21.0489" gradientUnits="userSpaceOnUse">
            <stop stop-color="#FFD459"/>
            <stop offset="0.2296" stop-color="#FFD355"/>
            <stop offset="0.4362" stop-color="#FFCF4A"/>
            <stop offset="0.634" stop-color="#FFC838"/>
            <stop offset="0.825" stop-color="#FFBF1F"/>
            <stop offset="1" stop-color="#FFB400"/>
        </linearGradient>
        <radialGradient id="paint5_radial_1_1005" cx="0" cy="0" r="1" gradientUnits="userSpaceOnUse" gradientTransform="translate(6.18789 17.2911) scale(3.24432)">
            <stop stop-color="#45425A"/>
            <stop offset="0.4759" stop-color="#424059"/>
            <stop offset="0.7742" stop-color="#3A3B56"/>
            <stop offset="1" stop-color="#2D3251"/>
        </radialGradient>
        <linearGradient id="paint6_linear_1_1005" x1="4.83825" y1="17.5106" x2="7.75683" y2="17.5106" gradientUnits="userSpaceOnUse">
            <stop stop-color="#C6E56F"/>
            <stop offset="0.3371" stop-color="#C4E56F"/>
            <stop offset="0.4953" stop-color="#BCE36E"/>
            <stop offset="0.6162" stop-color="#AFE16D"/>
            <stop offset="0.7182" stop-color="#9DDD6B"/>
            <stop offset="0.8083" stop-color="#85D968"/>
            <stop offset="0.8899" stop-color="#68D365"/>
            <stop offset="0.9635" stop-color="#46CD61"/>
            <stop offset="1" stop-color="#32C95F"/>
        </linearGradient>
        <linearGradient id="paint7_linear_1_1005" x1="7.70246" y1="18.9154" x2="6.37859" y2="17.5916" gradientUnits="userSpaceOnUse">
            <stop offset="0.0029" stop-color="#00E7B2" stop-opacity="0"/>
            <stop offset="0.4308" stop-color="#1BC4B7" stop-opacity="0.427451"/>
            <stop offset="1" stop-color="#3B9ABE"/>
        </linearGradient>
        <radialGradient id="paint8_radial_1_1005" cx="0" cy="0" r="1" gradientUnits="userSpaceOnUse" gradientTransform="translate(6.29757 17.5106) scale(0.771596)">
            <stop stop-color="#45425A"/>
            <stop offset="0.4759" stop-color="#424059"/>
            <stop offset="0.7742" stop-color="#3A3B56"/>
            <stop offset="1" stop-color="#2D3251"/>
        </radialGradient>
        <linearGradient id="paint9_linear_1_1005" x1="18.6481" y1="17.5105" x2="18.8629" y2="17.5105" gradientUnits="userSpaceOnUse">
            <stop stop-color="#575C55"/>
            <stop offset="1" stop-color="#45425A"/>
        </linearGradient>
        <linearGradient id="paint10_linear_1_1005" x1="15.5112" y1="17.5104" x2="22" y2="17.5104" gradientUnits="userSpaceOnUse">
            <stop stop-color="#575C55"/>
            <stop offset="1" stop-color="#45425A"/>
        </linearGradient>
        <linearGradient id="paint11_linear_1_1005" x1="16.3869" y1="17.5106" x2="21.1243" y2="17.5106" gradientUnits="userSpaceOnUse">
            <stop stop-color="#575C55"/>
            <stop offset="1" stop-color="#45425A"/>
        </linearGradient>
        <linearGradient id="paint12_linear_1_1005" x1="16.3869" y1="17.5106" x2="21.1243" y2="17.5106" gradientUnits="userSpaceOnUse">
            <stop stop-color="#575C55"/>
            <stop offset="1" stop-color="#45425A"/>
        </linearGradient>
        <linearGradient id="paint13_linear_1_1005" x1="18.4592" y1="17.214" x2="22.2941" y2="21.0489" gradientUnits="userSpaceOnUse">
            <stop stop-color="#FFD459"/>
            <stop offset="0.2296" stop-color="#FFD355"/>
            <stop offset="0.4362" stop-color="#FFCF4A"/>
            <stop offset="0.634" stop-color="#FFC838"/>
            <stop offset="0.825" stop-color="#FFBF1F"/>
            <stop offset="1" stop-color="#FFB400"/>
        </linearGradient>
        <radialGradient id="paint14_radial_1_1005" cx="0" cy="0" r="1" gradientUnits="userSpaceOnUse" gradientTransform="translate(18.6459 17.2911) scale(3.24432)">
            <stop stop-color="#45425A"/>
            <stop offset="0.4759" stop-color="#424059"/>
            <stop offset="0.7742" stop-color="#3A3B56"/>
            <stop offset="1" stop-color="#2D3251"/>
        </radialGradient>
        <linearGradient id="paint15_linear_1_1005" x1="17.2963" y1="17.5106" x2="20.2149" y2="17.5106" gradientUnits="userSpaceOnUse">
            <stop stop-color="#C6E56F"/>
            <stop offset="0.3371" stop-color="#C4E56F"/>
            <stop offset="0.4953" stop-color="#BCE36E"/>
            <stop offset="0.6162" stop-color="#AFE16D"/>
            <stop offset="0.7182" stop-color="#9DDD6B"/>
            <stop offset="0.8083" stop-color="#85D968"/>
            <stop offset="0.8899" stop-color="#68D365"/>
            <stop offset="0.9635" stop-color="#46CD61"/>
            <stop offset="1" stop-color="#32C95F"/>
        </linearGradient>
        <linearGradient id="paint16_linear_1_1005" x1="20.1604" y1="18.9154" x2="18.8366" y2="17.5916" gradientUnits="userSpaceOnUse">
            <stop offset="0.0029" stop-color="#00E7B2" stop-opacity="0"/>
            <stop offset="0.4308" stop-color="#1BC4B7" stop-opacity="0.427451"/>
            <stop offset="1" stop-color="#3B9ABE"/>
        </linearGradient>
        <radialGradient id="paint17_radial_1_1005" cx="0" cy="0" r="1" gradientUnits="userSpaceOnUse" gradientTransform="translate(18.7556 17.5106) scale(0.771596)">
            <stop stop-color="#45425A"/>
            <stop offset="0.4759" stop-color="#424059"/>
            <stop offset="0.7742" stop-color="#3A3B56"/>
            <stop offset="1" stop-color="#2D3251"/>
        </radialGradient>
        <linearGradient id="paint18_linear_1_1005" x1="13.2963" y1="14.4528" x2="9.53687" y2="16.3606" gradientUnits="userSpaceOnUse">
            <stop stop-color="#FF6E3A"/>
            <stop offset="0.1596" stop-color="#FF6440"/>
            <stop offset="0.4266" stop-color="#FF4B52"/>
            <stop offset="0.7662" stop-color="#FF216E"/>
            <stop offset="1" stop-color="#FF0084"/>
        </linearGradient>
        <linearGradient id="paint19_linear_1_1005" x1="4.13994" y1="11.3022" x2="10.2862" y2="17.4484" gradientUnits="userSpaceOnUse">
            <stop stop-color="#FF6E3A"/>
            <stop offset="0.1596" stop-color="#FF6440"/>
            <stop offset="0.4266" stop-color="#FF4B52"/>
            <stop offset="0.7662" stop-color="#FF216E"/>
            <stop offset="1" stop-color="#FF0084"/>
        </linearGradient>
        <linearGradient id="paint20_linear_1_1005" x1="18.7949" y1="13.7299" x2="18.7949" y2="15.1748" gradientUnits="userSpaceOnUse">
            <stop stop-color="#FF6E3A"/>
            <stop offset="0.1596" stop-color="#FF6440"/>
            <stop offset="0.4266" stop-color="#FF4B52"/>
            <stop offset="0.7662" stop-color="#FF216E"/>
            <stop offset="1" stop-color="#FF0084"/>
        </linearGradient>
        <linearGradient id="paint21_linear_1_1005" x1="18.6486" y1="15.7364" x2="16.5052" y2="13.593" gradientUnits="userSpaceOnUse">
            <stop stop-color="#E58200" stop-opacity="0"/>
            <stop offset="0.2413" stop-color="#DA760F" stop-opacity="0.243137"/>
            <stop offset="0.7044" stop-color="#BC5737" stop-opacity="0.705882"/>
            <stop offset="1" stop-color="#A64153"/>
        </linearGradient>
        <linearGradient id="paint22_linear_1_1005" x1="18.6129" y1="10.8441" x2="11.1555" y2="14.8524" gradientUnits="userSpaceOnUse">
            <stop stop-color="#FF6E3A"/>
            <stop offset="0.1596" stop-color="#FF6440"/>
            <stop offset="0.4266" stop-color="#FF4B52"/>
            <stop offset="0.7662" stop-color="#FF216E"/>
            <stop offset="1" stop-color="#FF0084"/>
        </linearGradient>
        <linearGradient id="paint23_linear_1_1005" x1="13.4072" y1="7.34468" x2="13.4072" y2="7.9506" gradientUnits="userSpaceOnUse">
            <stop stop-color="#45425A"/>
            <stop offset="0.4759" stop-color="#424059"/>
            <stop offset="0.7742" stop-color="#3A3B56"/>
            <stop offset="1" stop-color="#2D3251"/>
        </linearGradient>
        <linearGradient id="paint24_linear_1_1005" x1="18.1044" y1="11.2349" x2="15.351" y2="8.48148" gradientUnits="userSpaceOnUse">
            <stop stop-color="#E58200" stop-opacity="0"/>
            <stop offset="0.2413" stop-color="#DA760F" stop-opacity="0.243137"/>
            <stop offset="0.7044" stop-color="#BC5737" stop-opacity="0.705882"/>
            <stop offset="1" stop-color="#A64153"/>
        </linearGradient>
        <linearGradient id="paint25_linear_1_1005" x1="15.7133" y1="7.00665" x2="16.9817" y2="7.00665" gradientUnits="userSpaceOnUse">
            <stop stop-color="#FFD459"/>
            <stop offset="0.2296" stop-color="#FFD355"/>
            <stop offset="0.4362" stop-color="#FFCF4A"/>
            <stop offset="0.634" stop-color="#FFC838"/>
            <stop offset="0.825" stop-color="#FFBF1F"/>
            <stop offset="1" stop-color="#FFB400"/>
        </linearGradient>
        <linearGradient id="paint26_linear_1_1005" x1="15.1601" y1="6.57932" x2="16.1818" y2="9.58905" gradientUnits="userSpaceOnUse">
            <stop stop-color="#FF6E3A"/>
            <stop offset="0.1596" stop-color="#FF6440"/>
            <stop offset="0.4266" stop-color="#FF4B52"/>
            <stop offset="0.7662" stop-color="#FF216E"/>
            <stop offset="1" stop-color="#FF0084"/>
        </linearGradient>
        <linearGradient id="paint27_linear_1_1005" x1="8.58488" y1="9.58973" x2="8.58488" y2="10.3679" gradientUnits="userSpaceOnUse">
            <stop stop-color="#45425A"/>
            <stop offset="0.4759" stop-color="#424059"/>
            <stop offset="0.7742" stop-color="#3A3B56"/>
            <stop offset="1" stop-color="#2D3251"/>
        </linearGradient>
        <linearGradient id="paint28_linear_1_1005" x1="5.45821" y1="15.3496" x2="3.49113" y2="11.1081" gradientUnits="userSpaceOnUse">
            <stop stop-color="#E58200" stop-opacity="0"/>
            <stop offset="0.2413" stop-color="#DA760F" stop-opacity="0.243137"/>
            <stop offset="0.7044" stop-color="#BC5737" stop-opacity="0.705882"/>
            <stop offset="1" stop-color="#A64153"/>
        </linearGradient>
        <linearGradient id="paint29_linear_1_1005" x1="5.08136" y1="15.7108" x2="5.08136" y2="14.3422" gradientUnits="userSpaceOnUse">
            <stop stop-color="#E58200" stop-opacity="0"/>
            <stop offset="0.2413" stop-color="#DA760F" stop-opacity="0.243137"/>
            <stop offset="0.7044" stop-color="#BC5737" stop-opacity="0.705882"/>
            <stop offset="1" stop-color="#A64153"/>
        </linearGradient>
        <linearGradient id="paint30_linear_1_1005" x1="5.08136" y1="16.8141" x2="5.08136" y2="15.4455" gradientUnits="userSpaceOnUse">
            <stop stop-color="#E58200" stop-opacity="0"/>
            <stop offset="0.2413" stop-color="#DA760F" stop-opacity="0.243137"/>
            <stop offset="0.7044" stop-color="#BC5737" stop-opacity="0.705882"/>
            <stop offset="1" stop-color="#A64153"/>
        </linearGradient>
        <linearGradient id="paint31_linear_1_1005" x1="5.88162" y1="6.17123" x2="10.96" y2="6.17194" gradientUnits="userSpaceOnUse">
            <stop stop-color="#FFD459"/>
            <stop offset="0.2296" stop-color="#FFD355"/>
            <stop offset="0.4362" stop-color="#FFCF4A"/>
            <stop offset="0.634" stop-color="#FFC838"/>
            <stop offset="0.825" stop-color="#FFBF1F"/>
            <stop offset="1" stop-color="#FFB400"/>
        </linearGradient>
        <linearGradient id="paint32_linear_1_1005" x1="8.147" y1="6.42353" x2="5.03947" y2="3.31513" gradientUnits="userSpaceOnUse">
            <stop stop-color="#E58200" stop-opacity="0"/>
            <stop offset="0.1923" stop-color="#DE7B09" stop-opacity="0.192157"/>
            <stop offset="0.5014" stop-color="#CD6920" stop-opacity="0.501961"/>
            <stop offset="0.8866" stop-color="#B04B46" stop-opacity="0.886275"/>
            <stop offset="1" stop-color="#A64153"/>
        </linearGradient>
        <linearGradient id="paint33_linear_1_1005" x1="5.47599" y1="3.3389" x2="6.9527" y2="5.87922" gradientUnits="userSpaceOnUse">
            <stop stop-color="#FF6E3A"/>
            <stop offset="0.1596" stop-color="#FF6440"/>
            <stop offset="0.4266" stop-color="#FF4B52"/>
            <stop offset="0.7662" stop-color="#FF216E"/>
            <stop offset="1" stop-color="#FF0084"/>
        </linearGradient>
        <linearGradient id="paint34_linear_1_1005" x1="6.03111" y1="8.17009" x2="6.03092" y2="9.50731" gradientUnits="userSpaceOnUse">
            <stop stop-color="#FFE600" stop-opacity="0"/>
            <stop offset="1" stop-color="#F59500"/>
        </linearGradient>
        <linearGradient id="paint35_linear_1_1005" x1="3.58306" y1="8.43327" x2="4.87182" y2="8.43327" gradientUnits="userSpaceOnUse">
            <stop stop-color="#45425A"/>
            <stop offset="0.4759" stop-color="#424059"/>
            <stop offset="0.7742" stop-color="#3A3B56"/>
            <stop offset="1" stop-color="#2D3251"/>
        </linearGradient>
        <linearGradient id="paint36_linear_1_1005" x1="3.58314" y1="7.64522" x2="5.62791" y2="7.64522" gradientUnits="userSpaceOnUse">
            <stop stop-color="#45425A"/>
            <stop offset="0.4759" stop-color="#424059"/>
            <stop offset="0.7742" stop-color="#3A3B56"/>
            <stop offset="1" stop-color="#2D3251"/>
        </linearGradient>
        <clipPath id="clip0_1_1005">
            <rect width="20" height="20" fill="white" transform="translate(2 2)"/>
        </clipPath>
    </defs>
</svg>
