<svg width="18" height="18" viewBox="0 0 18 18" fill="none" xmlns="http://www.w3.org/2000/svg">
    <path d="M16.625 1.38338C16.3066 1.05885 15.9029 0.831064 15.4605 0.726361C15.0181 0.621658 14.5551 0.644316 14.125 0.791716L2.33333 4.73338C1.85776 4.88905 1.44224 5.18851 1.14413 5.59041C0.846015 5.99232 0.680014 6.47686 0.669039 6.97714C0.658064 7.47742 0.802656 7.96877 1.08286 8.38336C1.36306 8.79795 1.76505 9.11534 2.23333 9.29172L6.6 10.9584C6.69943 10.9964 6.78997 11.0545 6.86595 11.1291C6.94194 11.2036 7.00176 11.293 7.04167 11.3917L8.70833 15.7667C8.87799 16.2284 9.18585 16.6265 9.58997 16.9069C9.9941 17.1872 10.4748 17.3361 10.9667 17.3334H11.025C11.5259 17.3243 12.0113 17.1587 12.4133 16.8598C12.8153 16.5609 13.1137 16.1437 13.2667 15.6667L17.2083 3.85838C17.3517 3.4325 17.373 2.975 17.2699 2.53762C17.1669 2.10024 16.9435 1.70043 16.625 1.38338ZM15.6667 3.33338L11.6833 15.15C11.6371 15.2996 11.5442 15.4304 11.4182 15.5234C11.2923 15.6164 11.1399 15.6666 10.9833 15.6667C10.8277 15.6693 10.675 15.6244 10.5455 15.5381C10.416 15.4517 10.3158 15.328 10.2583 15.1834L8.59167 10.8084C8.47084 10.4905 8.28449 10.2016 8.04473 9.96037C7.80498 9.71918 7.51717 9.53111 7.2 9.40838L2.825 7.74172C2.67741 7.68763 2.55054 7.58855 2.46232 7.45846C2.3741 7.32836 2.32898 7.17384 2.33333 7.01672C2.33346 6.86017 2.38368 6.70777 2.47665 6.58182C2.56961 6.45587 2.70044 6.36297 2.85 6.31672L14.6667 2.37505C14.8023 2.31975 14.9511 2.30494 15.095 2.3324C15.2389 2.35986 15.3718 2.42842 15.4776 2.52979C15.5834 2.63116 15.6575 2.76099 15.6911 2.9036C15.7246 3.04621 15.7161 3.19549 15.6667 3.33338Z" fill="#5F5F5F"/>
</svg>
