<svg width="25" height="24" viewBox="0 0 25 24" fill="none" xmlns="http://www.w3.org/2000/svg">
    <g clip-path="url(#clip0_1_1840)">
        <path fill-rule="evenodd" clip-rule="evenodd" d="M17.776 5.01636C19.8568 5.49921 20.6528 6.71594 21.6507 8.39062H17.776V5.01636ZM5.6156 8.53125C6.02301 8.53125 6.31873 8.72791 6.31873 9.1875C6.31873 9.57513 6.00507 9.88953 5.61761 9.89062H1.36975C0.981384 9.89062 0.666626 10.2056 0.666626 10.5938C0.666626 10.9821 0.981384 11.2969 1.36975 11.2969H7.69788C8.0899 11.2969 8.40375 11.6115 8.40375 12C8.40375 12.3884 8.08899 12.7031 7.70062 12.7031H1.36975C0.981384 12.7031 0.666626 13.0179 0.666626 13.4062C0.666626 13.7946 0.981384 14.1094 1.36975 14.1094H2.91663V16.2188C2.91663 16.6071 3.23138 16.9219 3.61975 16.9219H5.03314C5.2851 18.163 6.38171 19.0781 7.67444 19.0781C8.96716 19.0781 10.0638 18.163 10.3157 16.9219H17.455C17.707 18.163 18.8036 19.0781 20.0963 19.0781C21.389 19.0781 22.4857 18.163 22.7376 16.9219H23.9635C24.3519 16.9219 24.6666 16.6071 24.6666 16.2188V12C24.6666 9.93695 22.4906 9.79999 22.4886 9.79688H17.0729C16.6845 9.79688 16.3698 9.48212 16.3698 9.09375V4.875H3.61975C3.23138 4.875 2.91663 5.18976 2.91663 5.57812V7.125H2.07288C1.68451 7.125 1.36975 7.43976 1.36975 7.82812C1.36975 8.21649 1.68451 8.53125 2.07288 8.53125H5.6156ZM21.0078 15.4713C21.5112 15.9747 21.5112 16.7911 21.0078 17.2945C20.1981 18.1042 18.8073 17.5281 18.8073 16.3828C18.8073 15.2377 20.1981 14.6616 21.0078 15.4713ZM8.58594 15.4713C9.08929 15.9747 9.08929 16.7911 8.58594 17.2945C7.77625 18.1042 6.38538 17.5281 6.38538 16.3828C6.38538 15.2377 7.77625 14.6616 8.58594 15.4713Z" fill="#7E5FA6"/>
    </g>
    <defs>
        <clipPath id="clip0_1_1840">
            <rect width="24" height="24" fill="white" transform="translate(0.666626)"/>
        </clipPath>
    </defs>
</svg>
