<svg width="24" height="24" viewBox="0 0 24 24" fill="none" xmlns="http://www.w3.org/2000/svg">
    <g clip-path="url(#clip0_1_1844)">
        <path d="M6.07363 23.9797L6.51548 23.8562C6.94048 23.7374 7.18872 23.2966 7.06996 22.8716L2.01825 4.79348C1.94697 4.53835 1.77725 4.32199 1.54644 4.192C1.31563 4.06201 1.04263 4.02904 0.787507 4.10033L0.730444 4.11627C0.199145 4.26471 -0.111222 4.81575 0.037217 5.34705L5.08905 23.4252C5.20781 23.8502 5.64862 24.0985 6.07363 23.9797Z" fill="#7E5FA6"/>
        <path d="M23.8635 11.3461C22.2614 10.5473 20.7794 9.5277 19.4607 8.31713C19.3498 8.21566 19.3065 8.0599 19.349 7.91575C20.0024 5.44383 20.4876 2.9305 20.8014 0.392998C20.851 -0.0290712 20.6235 -0.153209 20.3835 0.136446C15.6745 5.76817 7.5269 -0.893898 2.67725 4.22472C2.73547 4.33373 2.78127 4.44894 2.8138 4.56817L6.09104 16.3033C10.949 11.2468 19.0676 17.8675 23.7683 12.2482C24.0083 11.9585 24.0538 11.4289 23.8635 11.3461Z" fill="#7E5FA6"/>
    </g>
    <defs>
        <clipPath id="clip0_1_1844">
            <rect width="24" height="24" fill="white"/>
        </clipPath>
    </defs>
</svg>
