<svg width="19" height="21" viewBox="0 0 19 21" fill="none" xmlns="http://www.w3.org/2000/svg">
    <path d="M17.875 7.00001L11.875 1.74001C11.325 1.24805 10.6129 0.976074 9.87497 0.976074C9.13704 0.976074 8.42499 1.24805 7.87497 1.74001L1.87497 7.00001C1.55734 7.28408 1.30387 7.63256 1.13144 8.02225C0.959016 8.41194 0.871585 8.83389 0.874973 9.26001V18C0.874973 18.7957 1.19104 19.5587 1.75365 20.1213C2.31626 20.6839 3.07932 21 3.87497 21H15.875C16.6706 21 17.4337 20.6839 17.9963 20.1213C18.5589 19.5587 18.875 18.7957 18.875 18V9.25001C18.8769 8.82557 18.7888 8.40555 18.6164 8.01769C18.4441 7.62983 18.1913 7.28296 17.875 7.00001ZM11.875 19H7.87497V14C7.87497 13.7348 7.98033 13.4804 8.16787 13.2929C8.3554 13.1054 8.60976 13 8.87497 13H10.875C11.1402 13 11.3945 13.1054 11.5821 13.2929C11.7696 13.4804 11.875 13.7348 11.875 14V19ZM16.875 18C16.875 18.2652 16.7696 18.5196 16.5821 18.7071C16.3945 18.8946 16.1402 19 15.875 19H13.875V14C13.875 13.2044 13.5589 12.4413 12.9963 11.8787C12.4337 11.3161 11.6706 11 10.875 11H8.87497C8.07932 11 7.31626 11.3161 6.75365 11.8787C6.19104 12.4413 5.87497 13.2044 5.87497 14V19H3.87497C3.60976 19 3.3554 18.8946 3.16787 18.7071C2.98033 18.5196 2.87497 18.2652 2.87497 18V9.25001C2.87515 9.10802 2.90557 8.9677 2.96419 8.83839C3.02281 8.70907 3.1083 8.59372 3.21497 8.50001L9.21497 3.25001C9.39746 3.08969 9.63206 3.00127 9.87497 3.00127C10.1179 3.00127 10.3525 3.08969 10.535 3.25001L16.535 8.50001C16.6416 8.59372 16.7271 8.70907 16.7858 8.83839C16.8444 8.9677 16.8748 9.10802 16.875 9.25001V18Z" fill="#9AA6AC"/>
</svg>
