<svg width="20" height="20" viewBox="0 0 20 20" fill="none" xmlns="http://www.w3.org/2000/svg">
    <g clip-path="url(#clip0_1_2272)">
        <path d="M17.0664 3.04297C15.1797 1.16797 12.668 0.136719 10 0.136719C7.33203 0.136719 4.82422 1.16797 2.9375 3.04297C1.04687 4.91797 0.0078125 7.41016 0.0078125 10.0625C0.0078125 12.7148 1.04687 15.207 2.9375 17.082C4.82422 18.9531 7.33203 19.9883 10 19.9883C12.668 19.9883 15.1758 18.957 17.0625 17.082C18.9531 15.207 19.9922 12.7148 19.9922 10.0625C19.9922 7.41016 18.9531 4.91797 17.0664 3.04297ZM17.7969 6.875H14.0898C14.0859 6.86328 14.0859 6.85156 14.082 6.83984C13.7226 4.89844 13.1953 3.26563 12.7851 2.16797C15.0547 2.95703 16.8828 4.68359 17.7969 6.875ZM8.87109 1.77734C9.24218 1.72656 9.61718 1.70313 10 1.70313C10.3164 1.70313 10.625 1.72266 10.9297 1.75391C11.2656 2.53125 12.0195 4.44531 12.4961 6.875H7.66015C8.0664 4.17188 8.74218 2.15234 8.87109 1.77734ZM1.57031 10.0625C1.57031 9.50781 1.625 8.96484 1.73047 8.4375H5.89843C5.7539 10.0039 5.74219 11.5117 5.86328 12.9297H2.08203C1.75 12.0352 1.57031 11.0703 1.57031 10.0625ZM2.85547 14.4922H6.05859C6.2539 15.6836 6.54687 16.8086 6.94531 17.8516C5.24609 17.1953 3.8125 16.0039 2.85547 14.4922ZM6.08203 6.875H2.20703C3.10547 4.72266 4.88281 3.02344 7.08984 2.21484C6.79687 3.21484 6.36718 4.86719 6.08203 6.875ZM11.125 18.3477C10.7578 18.3945 10.3828 18.4219 10.0039 18.4219C9.61328 18.4219 9.23046 18.3945 8.85156 18.3438C8.25781 17.1094 7.875 15.8008 7.64843 14.4922H12.5742C12.2969 15.793 11.8359 17.1016 11.125 18.3477ZM12.8164 12.9297H7.4375C7.29296 11.332 7.33984 9.78906 7.46875 8.4375H12.75C12.9219 9.79297 12.9883 11.3359 12.8164 12.9297ZM13.1367 17.8242C13.5976 16.7813 13.9453 15.668 14.168 14.4922H17.1484C16.207 15.9844 14.8008 17.1602 13.1367 17.8242ZM14.3945 12.9297L14.4062 12.7891C14.5312 11.4063 14.5039 9.94531 14.3242 8.4375H18.2734C18.3789 8.96484 18.4336 9.50781 18.4336 10.0625C18.4336 11.0703 18.2539 12.0352 17.9219 12.9297H14.3945Z" fill="black"/>
    </g>
    <defs>
        <clipPath id="clip0_1_2272">
            <rect width="20" height="20" fill="white"/>
        </clipPath>
    </defs>
</svg>
