<svg width="20" height="20" viewBox="0 0 20 20" fill="none" xmlns="http://www.w3.org/2000/svg">
    <path d="M8.15829 10.6584L3.33329 15.4917V14.1667C3.33329 13.9457 3.2455 13.7338 3.08922 13.5775C2.93293 13.4212 2.72097 13.3334 2.49996 13.3334C2.27895 13.3334 2.06698 13.4212 1.9107 13.5775C1.75442 13.7338 1.66663 13.9457 1.66663 14.1667V17.5001C1.66794 17.609 1.69059 17.7166 1.73329 17.8167C1.81786 18.0204 1.97967 18.1822 2.18329 18.2667C2.28348 18.3095 2.39106 18.3321 2.49996 18.3334H5.83329C6.05431 18.3334 6.26627 18.2456 6.42255 18.0893C6.57883 17.9331 6.66663 17.7211 6.66663 17.5001C6.66663 17.2791 6.57883 17.0671 6.42255 16.9108C6.26627 16.7545 6.05431 16.6667 5.83329 16.6667H4.50829L9.34163 11.8417C9.49855 11.6848 9.5867 11.472 9.5867 11.2501C9.5867 11.0282 9.49855 10.8153 9.34163 10.6584C9.18471 10.5015 8.97188 10.4133 8.74996 10.4133C8.52804 10.4133 8.31521 10.5015 8.15829 10.6584ZM18.2666 2.18341C18.1821 1.97979 18.0203 1.81798 17.8166 1.73341C17.7164 1.69071 17.6089 1.66806 17.5 1.66675H14.1666C13.9456 1.66675 13.7337 1.75455 13.5774 1.91083C13.4211 2.06711 13.3333 2.27907 13.3333 2.50008C13.3333 2.7211 13.4211 2.93306 13.5774 3.08934C13.7337 3.24562 13.9456 3.33341 14.1666 3.33341H15.4916L10.6583 8.15841C10.5802 8.23588 10.5182 8.32805 10.4759 8.4296C10.4336 8.53115 10.4118 8.64007 10.4118 8.75008C10.4118 8.86009 10.4336 8.96901 10.4759 9.07056C10.5182 9.17211 10.5802 9.26428 10.6583 9.34175C10.7358 9.41986 10.8279 9.48185 10.9295 9.52416C11.031 9.56646 11.1399 9.58825 11.25 9.58825C11.36 9.58825 11.4689 9.56646 11.5704 9.52416C11.672 9.48185 11.7642 9.41986 11.8416 9.34175L16.6666 4.50841V5.83342C16.6666 6.05443 16.7544 6.26639 16.9107 6.42267C17.067 6.57895 17.2789 6.66675 17.5 6.66675C17.721 6.66675 17.9329 6.57895 18.0892 6.42267C18.2455 6.26639 18.3333 6.05443 18.3333 5.83342V2.50008C18.332 2.39118 18.3093 2.2836 18.2666 2.18341Z" fill="#5F5F5F"/>
</svg>
