<svg width="20" height="20" viewBox="0 0 20 20" fill="none" xmlns="http://www.w3.org/2000/svg">
    <path d="M10.11 13.3901L6.23002 17.2701C5.76026 17.7235 5.13288 17.9768 4.48002 17.9768C3.82716 17.9768 3.19978 17.7235 2.73002 17.2701C2.49962 17.0406 2.31681 16.7679 2.19207 16.4676C2.06733 16.1673 2.00312 15.8453 2.00312 15.5201C2.00312 15.1949 2.06733 14.8729 2.19207 14.5726C2.31681 14.2723 2.49962 13.9996 2.73002 13.7701L6.61002 9.89009C6.79832 9.70179 6.90411 9.4464 6.90411 9.18009C6.90411 8.91379 6.79832 8.6584 6.61002 8.47009C6.42172 8.28179 6.16632 8.176 5.90002 8.176C5.63372 8.176 5.37832 8.28179 5.19002 8.47009L1.31002 12.3601C0.528376 13.2109 0.10564 14.3308 0.130094 15.4858C0.154548 16.6409 0.624301 17.7419 1.44125 18.5589C2.2582 19.3758 3.35918 19.8456 4.51427 19.87C5.66935 19.8945 6.78923 19.4717 7.64002 18.6901L11.53 14.8101C11.7183 14.6218 11.8241 14.3664 11.8241 14.1001C11.8241 13.8338 11.7183 13.5784 11.53 13.3901C11.3417 13.2018 11.0863 13.096 10.82 13.096C10.5537 13.096 10.2983 13.2018 10.11 13.3901ZM18.69 1.31009C17.8488 0.474102 16.711 0.00488281 15.525 0.00488281C14.339 0.00488281 13.2012 0.474102 12.36 1.31009L8.47002 5.19009C8.37678 5.28333 8.30282 5.39402 8.25236 5.51585C8.2019 5.63767 8.17593 5.76824 8.17593 5.90009C8.17593 6.03195 8.2019 6.16252 8.25236 6.28434C8.30282 6.40617 8.37678 6.51686 8.47002 6.61009C8.56326 6.70333 8.67395 6.77729 8.79577 6.82775C8.91759 6.87821 9.04816 6.90419 9.18002 6.90419C9.31188 6.90419 9.44245 6.87821 9.56427 6.82775C9.68609 6.77729 9.79678 6.70333 9.89002 6.61009L13.77 2.73009C14.2398 2.27672 14.8672 2.02335 15.52 2.02335C16.1729 2.02335 16.8003 2.27672 17.27 2.73009C17.5004 2.95958 17.6832 3.2323 17.808 3.53261C17.9327 3.83292 17.9969 4.15491 17.9969 4.48009C17.9969 4.80528 17.9327 5.12727 17.808 5.42758C17.6832 5.72789 17.5004 6.00061 17.27 6.23009L13.39 10.1101C13.2963 10.2031 13.2219 10.3137 13.1711 10.4355C13.1204 10.5574 13.0942 10.6881 13.0942 10.8201C13.0942 10.9521 13.1204 11.0828 13.1711 11.2047C13.2219 11.3265 13.2963 11.4371 13.39 11.5301C13.483 11.6238 13.5936 11.6982 13.7154 11.749C13.8373 11.7998 13.968 11.8259 14.1 11.8259C14.232 11.8259 14.3627 11.7998 14.4846 11.749C14.6065 11.6982 14.7171 11.6238 14.81 11.5301L18.69 7.64009C19.526 6.79887 19.9952 5.66107 19.9952 4.47509C19.9952 3.28912 19.526 2.15131 18.69 1.31009ZM6.83002 13.1701C6.92346 13.2628 7.03428 13.3361 7.15611 13.3859C7.27795 13.4356 7.40841 13.4609 7.54002 13.4601C7.67163 13.4609 7.80209 13.4356 7.92393 13.3859C8.04576 13.3361 8.15658 13.2628 8.25002 13.1701L13.17 8.25009C13.3583 8.06179 13.4641 7.8064 13.4641 7.54009C13.4641 7.27379 13.3583 7.0184 13.17 6.83009C12.9817 6.64179 12.7263 6.536 12.46 6.536C12.1937 6.536 11.9383 6.64179 11.75 6.83009L6.83002 11.7501C6.73629 11.8431 6.6619 11.9537 6.61113 12.0755C6.56036 12.1974 6.53422 12.3281 6.53422 12.4601C6.53422 12.5921 6.56036 12.7228 6.61113 12.8447C6.6619 12.9665 6.73629 13.0771 6.83002 13.1701Z" fill="#5F5F5F"/>
</svg>
