<svg width="24" height="24" viewBox="0 0 24 24" fill="none" xmlns="http://www.w3.org/2000/svg">
    <path d="M16.37 12.7898C16.2479 12.7412 16.1174 12.7172 15.9859 12.719C15.8545 12.7208 15.7247 12.7486 15.604 12.8006C15.4833 12.8526 15.374 12.9278 15.2824 13.0221C15.1908 13.1163 15.1186 13.2277 15.07 13.3498C15.0214 13.4719 14.9974 13.6024 14.9992 13.7339C15.001 13.8653 15.0288 13.9951 15.0808 14.1158C15.1328 14.2365 15.208 14.3458 15.3023 14.4374C15.3965 14.529 15.5079 14.6012 15.63 14.6498C17.09 15.2298 18 16.1298 18 16.9998C18 18.4198 15.54 19.9998 12 19.9998C8.46 19.9998 6 18.4198 6 16.9998C6 16.1298 6.91 15.2298 8.37 14.6498C8.61665 14.5517 8.81422 14.3596 8.91924 14.1158C9.02426 13.872 9.02813 13.5965 8.93 13.3498C8.83187 13.1031 8.63978 12.9056 8.39598 12.8006C8.15218 12.6955 7.87665 12.6917 7.63 12.7898C5.36 13.6898 4 15.2598 4 16.9998C4 19.7998 7.51 21.9998 12 21.9998C16.49 21.9998 20 19.7998 20 16.9998C20 15.2598 18.64 13.6898 16.37 12.7898ZM11 9.8598V16.9998C11 17.265 11.1054 17.5194 11.2929 17.7069C11.4804 17.8944 11.7348 17.9998 12 17.9998C12.2652 17.9998 12.5196 17.8944 12.7071 17.7069C12.8946 17.5194 13 17.265 13 16.9998V9.8598C13.9427 9.61641 14.7642 9.03757 15.3106 8.23179C15.857 7.42601 16.0908 6.44861 15.9681 5.4828C15.8454 4.51699 15.3747 3.62907 14.6442 2.98548C13.9137 2.34189 12.9736 1.98682 12 1.98682C11.0264 1.98682 10.0863 2.34189 9.35577 2.98548C8.62526 3.62907 8.15456 4.51699 8.03188 5.4828C7.90921 6.44861 8.14299 7.42601 8.6894 8.23179C9.23581 9.03757 10.0573 9.61641 11 9.8598ZM12 3.9998C12.3956 3.9998 12.7822 4.1171 13.1111 4.33686C13.44 4.55662 13.6964 4.86898 13.8478 5.23443C13.9991 5.59988 14.0387 6.00202 13.9616 6.38998C13.8844 6.77794 13.6939 7.13431 13.4142 7.41401C13.1345 7.69372 12.7781 7.8842 12.3902 7.96137C12.0022 8.03854 11.6001 7.99893 11.2346 7.84756C10.8692 7.69618 10.5568 7.43984 10.3371 7.11094C10.1173 6.78204 10 6.39536 10 5.9998C10 5.46937 10.2107 4.96066 10.5858 4.58559C10.9609 4.21051 11.4696 3.9998 12 3.9998Z" fill="#2B2A28"/>
</svg>
