<svg width="24" height="24" viewBox="0 0 24 24" fill="none" xmlns="http://www.w3.org/2000/svg">
    <path d="M12 23C12.5304 23 13.0391 22.7893 13.4142 22.4142C13.7893 22.0391 14 21.5304 14 21H10C10 21.5304 10.2107 22.0391 10.5858 22.4142C10.9609 22.7893 11.4696 23 12 23ZM4 19H20C20.1978 19 20.391 18.9413 20.5555 18.8314C20.7199 18.7215 20.848 18.5654 20.9237 18.3827C20.9993 18.2 21.0192 17.9989 20.9806 17.805C20.942 17.611 20.8468 17.4329 20.707 17.293L19 15.586V10C18.9968 8.3185 18.3889 6.69424 17.2874 5.42379C16.1858 4.15334 14.6641 3.32145 13 3.08V2C13 1.73478 12.8946 1.48043 12.7071 1.29289C12.5196 1.10536 12.2652 1 12 1C11.7348 1 11.4804 1.10536 11.2929 1.29289C11.1054 1.48043 11 1.73478 11 2V3.08C9.33592 3.32145 7.81419 4.15334 6.71264 5.42379C5.61109 6.69424 5.00322 8.3185 5 10V15.586L3.293 17.293C3.15319 17.4329 3.05798 17.611 3.01942 17.805C2.98085 17.9989 3.00065 18.2 3.07632 18.3827C3.15199 18.5654 3.28013 18.7215 3.44454 18.8314C3.60895 18.9413 3.80225 19 4 19ZM6.707 16.707C6.89455 16.5195 6.99994 16.2652 7 16V10C7 8.67392 7.52678 7.40215 8.46447 6.46447C9.40215 5.52678 10.6739 5 12 5C13.3261 5 14.5979 5.52678 15.5355 6.46447C16.4732 7.40215 17 8.67392 17 10V16C17.0001 16.2652 17.1055 16.5195 17.293 16.707L17.586 17H6.414L6.707 16.707Z" fill="black"/>
</svg>
