<svg width="24" height="24" viewBox="0 0 24 24" fill="none" xmlns="http://www.w3.org/2000/svg">
    <path d="M19.4987 16.3117C19.7504 16.6792 19.7758 17.2583 19.5084 17.7072C19.2698 18.108 17.8403 19.6463 17.3752 20.1406C16.9721 20.5701 16.4278 21.0001 15.892 21.0001H4.67706C3.16136 21.0001 3.06982 20.4764 3.06982 19.2923V14.4895C3.06982 13.2801 3.42003 12.9307 4.45509 12.9307H15.892C16.4279 12.9307 16.9045 13.2094 17.4519 13.7766C17.9165 14.2583 19.3053 16.0289 19.4987 16.3117Z" fill="#33CCCC"/>
    <path d="M5.61232 14.7904C5.61232 14.7565 5.61232 14.792 5.61232 14.7587C5.61232 14.6042 5.59961 14.4517 5.35135 14.4517H4.414C4.19621 14.4517 4.18237 14.5745 4.18237 14.7651V16.0344C4.63871 15.3697 5.14452 15.0608 5.61232 14.7904Z" fill="white"/>
    <path d="M11.9005 19.3747V19.3066H11.9011V16.2516C11.9011 14.9703 11.3483 14.3301 10.2428 14.3301C9.92606 14.3301 9.63623 14.4108 9.37345 14.5724C9.11029 14.734 8.85773 14.96 8.61501 15.2497C8.4958 14.9348 8.31609 14.7029 8.07567 14.5538C7.83526 14.4046 7.52381 14.3303 7.14163 14.3303C6.69894 14.3303 6.18435 14.4884 5.81968 14.7941C5.73804 14.8773 4.18266 16.1251 4.18266 17.4066C4.18266 18.1091 4.18266 18.8549 4.18266 18.8549C4.18266 18.8549 4.18266 19.3506 4.18266 19.3626C4.18266 19.4248 4.15312 19.6609 4.41266 19.6609H5.38827C5.69162 19.6609 5.66196 19.4585 5.66196 19.3752C5.66196 19.3548 5.66196 18.8429 5.66196 18.8429V16.2113C5.82653 15.9887 6.16316 15.4388 6.70972 15.4388C6.91948 15.4388 7.07065 15.5113 7.16294 15.6558C7.25561 15.8004 7.30209 16.0434 7.30209 16.3837V18.8543H7.30097C7.30097 18.8543 7.30097 19.3501 7.30097 19.3621C7.30097 19.4243 7.27143 19.6604 7.53098 19.6604H8.49437C8.79791 19.6604 8.76824 19.458 8.76824 19.3747V19.3066H8.76937V16.2113C8.94578 15.9887 9.29749 15.4388 9.81701 15.4388C10.0309 15.4388 10.185 15.5113 10.2796 15.6558C10.3739 15.8004 10.4211 16.0434 10.4211 16.3837V18.8543H10.4201C10.4201 18.8543 10.4201 19.3501 10.4201 19.3621C10.4201 19.4243 10.3907 19.6604 10.6503 19.6604H11.6261C11.9302 19.6604 11.9005 19.458 11.9005 19.3747Z" fill="white"/>
    <path fill-rule="evenodd" clip-rule="evenodd" d="M15.0663 19.6164C16.0959 19.6164 16.9271 19.0849 17.2741 18.1336C17.2974 18.0702 17.2383 17.9378 17.1055 17.9379H16.2904C16.2904 17.9379 16.0905 17.9288 15.9929 18.0918C15.7684 18.4661 15.5109 18.6572 15.0761 18.6572C14.3632 18.6572 13.9594 18.1967 13.9406 17.3431H17.1055C17.3548 17.3431 17.4132 17.1635 17.4056 16.9601C17.3462 15.3681 16.412 14.3799 15.0196 14.3799C13.6121 14.3799 12.5894 15.4924 12.5894 17.0271C12.5894 18.5807 13.5744 19.6164 15.0663 19.6164ZM13.9403 16.4791C14.0153 15.7882 14.4282 15.3662 15.0196 15.3662C15.6856 15.3662 16.0047 15.8747 16.0611 16.4791H13.9403Z" fill="white"/>
    <path fill-rule="evenodd" clip-rule="evenodd" d="M8.82551 4.04347C8.69016 3.82896 8.5307 3.65539 8.34656 3.52171C8.16242 3.38839 7.95497 3.28241 7.72415 3.20337C7.49365 3.12503 7.24059 3.0714 6.9654 3.0428C6.69041 3.01414 6.39441 3 6.07753 3H3.47924C3.24562 3 3.00079 3.15636 3.00079 3.45133V7.74471C3.32987 8.46023 3.97109 9.21996 4.7 9.58294V8.73143C4.7 8.28215 5.03207 8.18171 5.16942 8.18171H5.93757C6.99575 8.18171 7.80329 7.95521 8.36045 7.50243C8.91755 7.05015 9.19604 6.37806 9.19604 5.48706C9.19604 5.21561 9.16688 4.96077 9.1088 4.7225C9.05022 4.48435 8.95594 4.25786 8.82551 4.04347ZM7.31181 6.25045C7.21635 6.41478 7.0881 6.53745 6.92733 6.61853C6.76643 6.69974 6.5811 6.74948 6.37154 6.76866C6.16166 6.7877 5.94486 6.79732 5.72109 6.79732H4.99101C4.81241 6.79732 4.70018 6.64917 4.70018 6.43064V4.67534C4.70018 4.47853 4.82612 4.39592 4.97717 4.39592H5.72109C5.96344 4.39592 6.19063 4.40318 6.40288 4.41732C6.61513 4.43146 6.79908 4.477 6.95537 4.5533C7.11166 4.6296 7.23386 4.74623 7.32272 4.90348C7.41108 5.06055 7.45545 5.28233 7.45545 5.56799C7.45506 5.85849 7.4074 6.086 7.31181 6.25045ZM3.0006 8.75739C3.36073 9.14343 3.89819 9.53272 4.69982 9.85934H4.6998L4.69963 10.83C4.69963 10.83 4.73801 11.1681 4.42706 11.1681H3.29361C2.97076 11.1681 3.0006 10.83 3.0006 10.83V8.75739ZM20.7633 5.25932H19.746C19.5393 5.25932 19.4031 5.34779 19.321 5.5795C19.2385 5.81122 18.1607 8.87152 18.1607 8.87152C18.1607 8.87152 17.1293 5.8744 17.0482 5.64237C16.9674 5.41033 16.8337 5.25932 16.5934 5.25932H15.6589C15.3291 5.25932 15.3291 5.5232 15.37 5.62804C15.4032 5.71262 16.6832 9.28813 17.1708 10.6501C17.194 10.715 17.2144 10.7708 17.2322 10.8194C17.3024 11.0116 17.3319 11.0924 17.3347 11.1875C17.3385 11.307 17.2195 11.5567 17.1373 11.7003C17.0968 11.7711 17.0533 11.8309 17.0079 11.8856C17.9637 11.5941 19.0654 10.5358 19.635 9.38934C20.1983 7.79173 20.9412 5.68122 20.9733 5.5732C21.0251 5.39874 21.0245 5.25932 20.7633 5.25932ZM16.0073 12.1683C16.0954 12.1801 16.1832 12.1856 16.2715 12.1876C17.5523 12.3141 18.8748 11.036 19.155 10.7476L19.0069 11.1679C18.8765 11.5204 18.74 11.8433 18.598 12.1362C18.4558 12.429 18.2939 12.6815 18.1122 12.8935C17.9303 13.1055 17.7204 13.271 17.4826 13.3901C17.2449 13.5092 16.9651 13.5689 16.6438 13.5689C16.3701 13.5689 16.1295 13.5451 15.9218 13.4977L15.9129 13.4958C15.8325 13.4779 15.6995 13.4482 15.6995 13.1538V12.3533C15.6995 12.1742 15.9002 12.1538 16.0073 12.1683ZM14.7438 6.20743C14.6833 6.06451 14.6085 5.94216 14.5204 5.83936C14.4315 5.73707 14.3268 5.64554 14.2054 5.56414C14.075 5.47822 13.9423 5.40809 13.8071 5.35313C13.6719 5.29886 13.5261 5.25338 13.37 5.21746C13.2139 5.18154 13.0426 5.15664 12.8563 5.1425C12.6697 5.12835 12.4599 5.12109 12.2268 5.12109C10.6857 5.12109 9.8084 5.61739 9.59422 6.61016C9.52461 6.91824 9.82373 6.9364 9.82373 6.9364H10.7718C10.9779 6.9364 11.005 6.88009 11.0776 6.7295C11.0922 6.69924 11.1086 6.66517 11.1287 6.62698C11.1732 6.50125 11.2479 6.3973 11.3528 6.31456C11.5348 6.17164 11.8075 6.10037 12.171 6.10037C12.5207 6.10037 12.7747 6.16948 12.9332 6.3075C13.0918 6.44571 13.1849 6.65532 13.2128 6.9364C13.2128 7.26263 13.113 7.4802 12.7261 7.4802C11.7827 7.4453 10.769 7.55421 10.198 7.88771C9.62669 8.2212 9.30402 8.87354 9.30402 9.5739C9.30402 9.85956 9.35412 10.1098 9.45438 10.3243C9.55446 10.5385 9.6943 10.7183 9.87402 10.8637C10.0532 11.0092 10.2666 11.1176 10.5137 11.189C10.7607 11.2604 11.0311 11.2963 11.3248 11.2963C11.735 11.2963 12.0977 11.2435 12.4123 11.1389C12.7269 11.0342 13.2137 10.689 13.2757 10.6386V10.8226C13.2757 11.0049 13.3301 11.1676 13.5436 11.1676L14.6461 11.1677C14.8693 11.1677 14.9188 11.0051 14.9188 10.805V7.34416C14.9188 7.10131 14.905 6.88666 14.8769 6.70106C14.8486 6.51483 14.8043 6.35069 14.7438 6.20744V6.20743ZM11.9401 10.2042C12.9561 10.2042 13.2408 9.6015 13.2408 9.6015C13.2408 9.6015 13.2408 8.98961 13.2407 8.91987C13.2407 8.73031 13.1286 8.45593 12.7022 8.44567C12.2759 8.43542 11.7069 8.51847 11.4226 8.66357C11.1382 8.80917 10.996 9.05795 10.996 9.41081C10.996 9.68246 11.0835 9.88251 11.2583 10.0112C11.4333 10.14 11.6606 10.2042 11.9401 10.2042Z" fill="#333333"/>
</svg>
