<svg width="25" height="24" viewBox="0 0 25 24" fill="none" xmlns="http://www.w3.org/2000/svg">
    <path d="M15.835 12.7101C16.8154 11.9388 17.531 10.881 17.8822 9.68407C18.2335 8.48709 18.2029 7.21039 17.7948 6.03159C17.3867 4.85279 16.6213 3.83052 15.6051 3.10698C14.5889 2.38344 13.3724 1.99463 12.125 1.99463C10.8775 1.99463 9.66111 2.38344 8.64493 3.10698C7.62874 3.83052 6.86334 4.85279 6.45521 6.03159C6.04708 7.21039 6.01651 8.48709 6.36776 9.68407C6.71901 10.881 7.4346 11.9388 8.415 12.7101C6.73507 13.3832 5.26928 14.4995 4.17389 15.94C3.07849 17.3806 2.39456 19.0914 2.195 20.8901C2.18055 21.0214 2.19211 21.1543 2.22902 21.2812C2.26593 21.408 2.32746 21.5264 2.41011 21.6294C2.57702 21.8376 2.81978 21.971 3.085 22.0001C3.35021 22.0293 3.61616 21.9519 3.82432 21.785C4.03249 21.6181 4.16582 21.3753 4.195 21.1101C4.41458 19.1553 5.34668 17.3499 6.81322 16.0389C8.27975 14.7279 10.1779 14.0032 12.145 14.0032C14.1121 14.0032 16.0102 14.7279 17.4768 16.0389C18.9433 17.3499 19.8754 19.1553 20.095 21.1101C20.1222 21.3558 20.2394 21.5828 20.4241 21.7471C20.6088 21.9115 20.8478 22.0016 21.095 22.0001H21.205C21.4671 21.97 21.7067 21.8374 21.8716 21.6314C22.0364 21.4253 22.1131 21.1625 22.085 20.9001C21.8845 19.0963 21.1969 17.3811 20.0958 15.9383C18.9948 14.4955 17.5219 13.3796 15.835 12.7101ZM12.125 12.0001C11.3339 12.0001 10.5605 11.7655 9.90272 11.326C9.24492 10.8865 8.73223 10.2618 8.42948 9.53086C8.12673 8.79995 8.04751 7.99569 8.20186 7.21976C8.3562 6.44384 8.73716 5.73111 9.29657 5.1717C9.85598 4.61229 10.5687 4.23132 11.3446 4.07698C12.1206 3.92264 12.9248 4.00186 13.6557 4.30461C14.3866 4.60736 15.0113 5.12005 15.4509 5.77784C15.8904 6.43564 16.125 7.209 16.125 8.00012C16.125 9.06099 15.7036 10.0784 14.9534 10.8286C14.2033 11.5787 13.1859 12.0001 12.125 12.0001Z" fill="#9AA6AC"/>
</svg>
